<?xml version="1.0" standalone="no"?>
<!DOCTYPE svg PUBLIC "-//W3C//DTD SVG 20010904//EN"
 "http://www.w3.org/TR/2001/REC-SVG-20010904/DTD/svg10.dtd">
<svg version="1.0" xmlns="http://www.w3.org/2000/svg"
 width="512.000000pt" height="512.000000pt" viewBox="0 0 512.000000 512.000000"
 preserveAspectRatio="xMidYMid meet">
<metadata>
Created by potrace 1.14, written by Peter Selinger 2001-2017
</metadata>
<g transform="translate(0.000000,512.000000) scale(0.100000,-0.100000)"
fill="#000000" stroke="none">
<path d="M2340 5117 c-3 -3 -83 -8 -177 -11 -95 -3 -183 -8 -195 -10 -13 -3
-61 -8 -108 -11 -47 -3 -98 -7 -115 -9 -32 -5 -136 -18 -170 -21 -103 -11
-150 -17 -155 -20 -3 -2 -28 -6 -55 -9 -44 -5 -95 -14 -200 -33 -67 -12 -187
-37 -375 -78 -8 -1 -35 -8 -60 -15 -25 -7 -52 -13 -60 -15 -158 -32 -241 -78
-281 -157 -10 -20 -25 -41 -32 -45 -19 -12 -53 -72 -67 -118 -14 -49 -50 -183
-57 -210 -2 -11 -9 -36 -13 -55 -30 -119 -97 -442 -106 -510 -3 -25 -8 -48
-10 -51 -1 -3 -6 -32 -9 -65 -4 -32 -8 -62 -11 -65 -2 -3 -6 -35 -10 -70 -4
-35 -7 -71 -9 -79 -1 -8 -5 -46 -10 -85 -4 -38 -9 -79 -11 -90 -2 -11 -6 -60
-10 -110 -3 -49 -7 -96 -9 -102 -8 -23 -20 -367 -20 -553 0 -201 11 -538 19
-561 3 -8 8 -54 11 -104 3 -49 8 -103 10 -120 2 -16 7 -55 11 -85 3 -30 8 -66
9 -80 9 -92 16 -144 19 -149 2 -3 7 -33 11 -66 10 -80 13 -100 15 -100 1 0 3
-12 5 -26 2 -15 15 -87 30 -160 43 -216 43 -214 45 -214 1 0 3 -9 4 -20 2 -11
18 -76 35 -145 18 -69 34 -132 36 -141 9 -41 36 -89 70 -122 21 -21 42 -37 46
-37 4 0 30 -19 58 -43 44 -38 112 -69 179 -82 9 -1 37 -9 62 -16 25 -7 50 -13
55 -15 6 -1 48 -11 95 -23 47 -12 94 -23 105 -25 11 -3 43 -10 70 -16 64 -15
75 -17 119 -24 19 -3 55 -10 78 -15 24 -6 72 -15 108 -20 36 -6 76 -13 90 -15
61 -10 168 -26 200 -30 104 -12 158 -18 180 -22 14 -2 57 -7 95 -9 39 -3 83
-8 99 -10 115 -19 854 -28 1096 -13 160 10 354 28 450 43 19 3 55 8 80 10 41
5 81 10 135 19 11 2 44 7 74 11 55 7 76 10 121 20 31 7 59 12 130 25 73 13 80
15 190 40 52 13 106 25 120 27 14 3 32 7 40 10 8 3 20 7 25 9 50 12 104 26
125 30 70 15 127 55 171 121 8 11 31 41 52 66 38 45 47 71 106 297 12 47 27
103 33 125 5 22 12 49 14 60 9 47 13 68 18 83 3 9 8 31 11 47 8 47 25 138 30
165 3 14 10 52 15 85 6 33 12 71 15 85 2 14 7 41 9 60 3 19 8 51 10 70 3 19 8
58 11 85 3 28 8 61 10 75 6 31 14 105 21 185 3 33 7 74 9 90 13 113 20 339 20
640 0 368 -8 552 -30 740 -3 22 -10 81 -16 130 -6 50 -12 106 -14 125 -2 19
-8 66 -14 103 -7 37 -14 89 -17 114 -3 26 -7 50 -10 54 -2 4 -6 26 -9 50 -3
23 -10 63 -16 88 -6 25 -12 57 -14 71 -4 29 -14 78 -21 102 -3 10 -7 30 -10
45 -3 16 -16 75 -30 132 -14 57 -27 111 -29 120 -2 9 -10 37 -18 64 -8 26 -13
47 -11 47 3 0 -3 15 -12 33 -19 38 -93 117 -109 117 -7 0 -24 14 -39 31 -26
28 -92 65 -134 74 -28 6 -94 23 -152 39 -30 9 -68 18 -84 21 -16 3 -32 8 -36
10 -6 3 -96 24 -183 41 -10 2 -26 5 -35 8 -9 3 -30 7 -46 10 -16 3 -54 10 -85
17 -56 11 -66 13 -136 23 -22 3 -51 8 -65 11 -14 3 -43 8 -65 10 -22 3 -47 7
-55 10 -14 4 -40 7 -160 20 -30 3 -62 8 -70 10 -8 2 -46 7 -85 10 -38 4 -86 8
-105 10 -96 9 -221 18 -275 20 -189 9 -581 17 -585 12z m495 -492 c283 -15
439 -28 595 -50 19 -3 55 -8 80 -11 56 -7 77 -11 116 -18 17 -3 46 -8 65 -10
46 -6 101 -16 119 -21 8 -2 31 -7 50 -10 67 -11 185 -36 260 -55 41 -11 90
-22 109 -25 19 -3 41 -10 50 -14 9 -5 19 -9 24 -9 4 0 30 -6 57 -13 48 -12 55
-19 65 -66 2 -10 13 -58 25 -108 24 -102 28 -118 36 -159 2 -16 6 -32 8 -35 2
-3 7 -24 10 -46 3 -22 11 -62 16 -90 5 -27 12 -62 14 -78 3 -15 8 -36 11 -48
4 -11 8 -44 10 -72 2 -29 4 -52 5 -52 3 0 9 -37 15 -80 2 -22 7 -56 9 -75 5
-33 9 -66 22 -190 3 -30 7 -75 9 -100 1 -25 6 -90 10 -145 16 -195 10 -839
-10 -1035 -2 -19 -6 -66 -9 -105 -3 -38 -9 -90 -12 -115 -3 -25 -7 -64 -9 -88
-2 -23 -6 -50 -9 -60 -4 -15 -8 -38 -21 -142 -2 -15 -14 -88 -21 -125 -20
-105 -27 -143 -30 -160 -2 -11 -13 -63 -24 -115 -12 -52 -23 -104 -25 -115 -4
-17 -32 -127 -52 -200 -3 -11 -7 -32 -10 -47 -5 -26 -14 -32 -60 -43 -10 -3
-38 -9 -63 -16 -54 -13 -71 -17 -130 -29 -25 -5 -55 -12 -68 -14 -13 -3 -33
-8 -44 -12 -11 -3 -30 -7 -41 -9 -12 -1 -51 -8 -87 -15 -36 -7 -74 -14 -85
-16 -11 -2 -47 -8 -80 -13 -33 -6 -78 -13 -100 -16 -22 -3 -51 -8 -65 -10 -14
-3 -50 -8 -80 -11 -30 -3 -71 -7 -90 -10 -19 -2 -62 -6 -95 -9 -33 -3 -82 -7
-110 -10 -228 -20 -799 -27 -1025 -11 -63 5 -137 10 -163 11 -58 4 -159 14
-207 20 -19 3 -53 7 -75 10 -22 2 -74 9 -115 15 -41 7 -88 14 -105 16 -16 2
-77 13 -135 24 -58 11 -116 22 -130 24 -14 2 -25 5 -25 6 0 1 -9 3 -20 4 -16
2 -81 15 -105 21 -3 0 -23 5 -45 10 -48 10 -40 8 -150 35 -49 12 -111 29 -137
37 l-46 15 -21 86 c-12 48 -24 97 -26 110 -2 13 -6 31 -9 40 -3 9 -7 28 -10
42 -3 14 -18 93 -35 175 -25 128 -39 210 -56 332 -2 13 -6 40 -9 60 -8 46 -16
121 -21 188 -2 28 -6 75 -10 105 -8 77 -12 139 -21 335 -14 348 -4 689 31
1040 3 28 7 69 9 91 2 23 6 55 9 70 4 16 9 52 12 79 3 28 10 75 15 105 5 30
12 75 15 99 3 24 8 47 10 51 3 4 7 24 10 45 5 42 41 221 56 278 6 21 12 50 14
65 2 15 8 39 14 55 6 15 9 27 7 27 -2 0 8 42 23 93 l27 92 84 23 c47 12 99 24
115 27 17 3 38 8 47 11 9 3 27 7 40 9 13 3 48 10 78 17 30 6 62 12 70 13 8 1
42 7 75 14 33 6 69 13 80 15 29 5 102 17 128 21 12 2 42 6 67 9 25 4 63 9 85
12 22 2 58 7 80 9 49 7 107 12 205 21 41 3 93 8 115 9 22 2 110 7 195 10 85 4
156 7 157 8 4 5 343 -1 468 -8z"/>
<path d="M1772 2518 c0 -585 2 -1066 4 -1070 5 -8 34 7 174 89 47 28 119 70
160 94 41 24 83 48 92 54 9 5 63 37 120 69 57 32 111 66 121 74 9 8 17 11 17
6 0 -5 4 -4 8 2 9 13 168 104 182 104 5 0 10 3 10 8 0 4 21 18 48 32 26 13 49
27 52 30 3 3 16 11 29 18 60 34 94 54 206 119 463 269 615 359 615 364 0 5
-359 218 -385 228 -5 2 -29 17 -52 32 -23 16 -44 29 -47 29 -3 0 -39 20 -79
45 -41 25 -80 45 -86 45 -6 0 -11 4 -11 8 0 4 -19 18 -42 30 -24 12 -59 32
-78 43 -19 12 -54 32 -77 45 -23 13 -93 54 -155 90 -62 37 -131 77 -153 89
-22 13 -152 89 -289 169 -136 80 -250 146 -253 146 -2 0 -23 13 -46 29 -23 15
-52 31 -63 35 l-22 7 0 -1063z"/>
</g>
</svg>
